<?xml version="1.0" encoding="UTF-8" standalone="no"?>
<!-- Created with Inkscape (http://www.inkscape.org/) -->

<svg
   xmlns:dc="http://purl.org/dc/elements/1.1/"
   xmlns:cc="http://creativecommons.org/ns#"
   xmlns:rdf="http://www.w3.org/1999/02/22-rdf-syntax-ns#"
   xmlns:svg="http://www.w3.org/2000/svg"
   xmlns="http://www.w3.org/2000/svg"
   xmlns:xlink="http://www.w3.org/1999/xlink"
   xmlns:sodipodi="http://sodipodi.sourceforge.net/DTD/sodipodi-0.dtd"
   xmlns:inkscape="http://www.inkscape.org/namespaces/inkscape"
   width="66.49173mm"
   height="15.721015mm"
   viewBox="0 0 66.49173 15.721015"
   version="1.1"
   id="svg8"
   inkscape:version="0.92.4 (5da689c313, 2019-01-14)"
   sodipodi:docname="weather.svg">
  <defs
     id="defs2">
    <linearGradient
       inkscape:collect="always"
       id="linearGradient20335">
      <stop
         style="stop-color:#b5efff;stop-opacity:1"
         offset="0"
         id="stop20331" />
      <stop
         style="stop-color:#63aae7;stop-opacity:1"
         offset="1"
         id="stop20333" />
    </linearGradient>
    <linearGradient
       inkscape:collect="always"
       xlink:href="#linearGradient20335"
       id="linearGradient20337"
       x1="148.92813"
       y1="185.46465"
       x2="156.07561"
       y2="185.46465"
       gradientUnits="userSpaceOnUse" />
  </defs>
  <sodipodi:namedview
     id="base"
     pagecolor="#ffffff"
     bordercolor="#666666"
     borderopacity="1.0"
     inkscape:pageopacity="0.0"
     inkscape:pageshadow="2"
     inkscape:zoom="2.8284271"
     inkscape:cx="57.089046"
     inkscape:cy="29.022432"
     inkscape:document-units="mm"
     inkscape:current-layer="layer13"
     showgrid="false"
     inkscape:window-width="1920"
     inkscape:window-height="1027"
     inkscape:window-x="-8"
     inkscape:window-y="-8"
     inkscape:window-maximized="1"
     fit-margin-top="0"
     fit-margin-left="0"
     fit-margin-right="0"
     fit-margin-bottom="0" />
  <metadata
     id="metadata5">
    <rdf:RDF>
      <cc:Work
         rdf:about="">
        <dc:format>image/svg+xml</dc:format>
        <dc:type
           rdf:resource="http://purl.org/dc/dcmitype/StillImage" />
        <dc:title></dc:title>
      </cc:Work>
    </rdf:RDF>
  </metadata>
  <g
     inkscape:groupmode="layer"
     id="layer2"
     inkscape:label="sunny"
     transform="translate(-106.41502,-173.12985)">
    <circle
       style="opacity:1;fill:#b5efff;fill-opacity:1;stroke:#1a77da;stroke-width:0.80000001;stroke-linecap:butt;stroke-linejoin:miter;stroke-miterlimit:4;stroke-dasharray:none;stroke-opacity:1;paint-order:stroke markers fill"
       id="path8545"
       cx="110.20369"
       cy="176.96893"
       r="1.5119048" />
    <rect
       style="opacity:1;fill:#b5efff;fill-opacity:1;stroke:#1a77da;stroke-width:0.5;stroke-linecap:round;stroke-linejoin:miter;stroke-miterlimit:4;stroke-dasharray:none;stroke-opacity:1;paint-order:stroke markers fill"
       id="rect8573"
       width="0.47607362"
       height="1.2737061"
       x="109.98304"
       y="173.39684"
       ry="0.22976659" />
    <rect
       ry="0.22976659"
       y="-113.81005"
       x="176.70763"
       height="1.2737061"
       width="0.47607362"
       id="rect12285"
       style="opacity:1;fill:#b5efff;fill-opacity:1;stroke:#1a77da;stroke-width:0.5;stroke-linecap:round;stroke-linejoin:miter;stroke-miterlimit:4;stroke-dasharray:none;stroke-opacity:1;paint-order:stroke markers fill"
       transform="rotate(90)" />
    <rect
       ry="0.22976659"
       y="106.66502"
       x="-177.19551"
       height="1.2737061"
       width="0.47607362"
       id="rect12287"
       style="opacity:1;fill:#b5efff;fill-opacity:1;stroke:#1a77da;stroke-width:0.5;stroke-linecap:round;stroke-linejoin:miter;stroke-miterlimit:4;stroke-dasharray:none;stroke-opacity:1;paint-order:stroke markers fill"
       transform="rotate(-90)" />
    <rect
       ry="0.22976659"
       y="179.29144"
       x="109.99485"
       height="1.2737061"
       width="0.47607362"
       id="rect12289"
       style="opacity:1;fill:#b5efff;fill-opacity:1;stroke:#1a77da;stroke-width:0.5;stroke-linecap:round;stroke-linejoin:miter;stroke-miterlimit:4;stroke-dasharray:none;stroke-opacity:1;paint-order:stroke markers fill" />
    <rect
       style="opacity:1;fill:#b5efff;fill-opacity:1;stroke:#1a77da;stroke-width:0.5;stroke-linecap:round;stroke-linejoin:miter;stroke-miterlimit:4;stroke-dasharray:none;stroke-opacity:1;paint-order:stroke markers fill"
       id="rect12291"
       width="0.47607362"
       height="1.2737061"
       x="-47.414688"
       y="205.61591"
       ry="0.22976659"
       transform="rotate(-45)"
       inkscape:transform-center-x="1.9711128"
       inkscape:transform-center-y="0.96885204" />
    <rect
       inkscape:transform-center-y="0.96885204"
       inkscape:transform-center-x="1.9711128"
       transform="rotate(-45)"
       ry="0.22976659"
       y="199.21814"
       x="-47.397984"
       height="1.2737061"
       width="0.47607362"
       id="rect12293"
       style="opacity:1;fill:#b5efff;fill-opacity:1;stroke:#1a77da;stroke-width:0.5;stroke-linecap:round;stroke-linejoin:miter;stroke-miterlimit:4;stroke-dasharray:none;stroke-opacity:1;paint-order:stroke markers fill" />
    <rect
       inkscape:transform-center-y="-1.9711102"
       inkscape:transform-center-x="0.9688497"
       transform="rotate(45)"
       ry="0.22976659"
       y="49.749084"
       x="202.82379"
       height="1.2737061"
       width="0.47607362"
       id="rect12295"
       style="opacity:1;fill:#b5efff;fill-opacity:1;stroke:#1a77da;stroke-width:0.5;stroke-linecap:round;stroke-linejoin:miter;stroke-miterlimit:4;stroke-dasharray:none;stroke-opacity:1;paint-order:stroke markers fill" />
    <rect
       style="opacity:1;fill:#b5efff;fill-opacity:1;stroke:#1a77da;stroke-width:0.5;stroke-linecap:round;stroke-linejoin:miter;stroke-miterlimit:4;stroke-dasharray:none;stroke-opacity:1;paint-order:stroke markers fill"
       id="rect12297"
       width="0.47607362"
       height="1.2737061"
       x="202.77368"
       y="43.351318"
       ry="0.22976659"
       transform="rotate(45)"
       inkscape:transform-center-x="0.9688497"
       inkscape:transform-center-y="-1.9711102" />
  </g>
  <g
     inkscape:groupmode="layer"
     id="layer3"
     inkscape:label="cloudy"
     style="display:inline"
     transform="translate(-106.41502,-173.12985)">
    <path
       style="display:inline;fill:#b5edff;fill-opacity:1;stroke:#1a77da;stroke-width:0.80000001;stroke-linecap:butt;stroke-linejoin:miter;stroke-miterlimit:4;stroke-dasharray:none;stroke-opacity:1;paint-order:stroke markers fill"
       d="m 116.39588,178.40892 h 1.56813 c 0.24153,0.27082 0.5368,0.36941 0.90882,0.37192 0.42472,0.0203 0.68206,-0.23724 0.87058,-0.4587 0,0 0.0558,-0.0602 0.12107,-0.17362 0.068,-0.0865 0.1685,-0.0815 0.22648,0.004 0.0177,0.0435 0.0782,0.1999 0.18874,0.2442 0.31415,0.0702 0.53961,0.0682 0.85572,0.008 0.39373,-0.12348 0.53047,-0.39809 0.60312,-0.61981 0.0363,-0.13174 0.0105,-0.27203 -0.0236,-0.46657 -0.0507,-0.18569 -0.21851,-0.54828 -0.536,-0.63366 0.0572,-0.23561 0.0307,-0.54465 0.004,-0.7041 -0.0129,-0.25678 -0.2953,-0.42806 -0.42827,-0.50415 -0.14053,-0.10217 -0.73318,-0.14377 -0.86136,-0.0388 -0.0711,0.0227 -0.25069,0.23839 -0.31322,0.20659 -0.0793,0.0262 -0.52612,-0.69422 -0.73832,-0.76693 -0.22558,-0.12384 -0.92981,-0.0713 -1.19324,-9e-4 -0.55387,0.0998 -0.74454,0.96288 -0.89829,1.13897 -0.66293,-0.0273 -1.14244,0.5966 -1.15207,1.19363 0.002,0.4043 0.29711,1.20675 0.79752,1.20064 z"
       id="path12300"
       inkscape:connector-curvature="0"
       sodipodi:nodetypes="ccccccccccccccccccccc" />
  </g>
  <g
     inkscape:groupmode="layer"
     id="layer4"
     inkscape:label="lightning"
     style="display:inline"
     transform="translate(-106.41502,-173.12985)">
    <path
       style="display:inline;fill:#b5efff;fill-opacity:1;stroke:#1a77da;stroke-width:0.80000001;stroke-linecap:butt;stroke-linejoin:round;stroke-miterlimit:4;stroke-dasharray:none;stroke-opacity:1;paint-order:stroke markers fill"
       d="m 125.10719,177.06697 3.20982,-2.78521 -0.86816,2.008 1.49418,0.78548 -3.15374,2.72261 0.91541,-1.90169 z"
       id="path12303"
       inkscape:connector-curvature="0" />
  </g>
  <g
     inkscape:groupmode="layer"
     id="layer5"
     inkscape:label="rain"
     style="display:inline"
     transform="translate(-106.41502,-173.12985)">
    <rect
       style="display:inline;opacity:1;fill:#b5edff;fill-opacity:1;stroke:#1a77da;stroke-width:0.40000743;stroke-linecap:butt;stroke-linejoin:round;stroke-miterlimit:4;stroke-dasharray:none;stroke-opacity:1;paint-order:stroke markers fill"
       id="rect12305"
       width="0.54194474"
       height="2.2765307"
       x="194.39482"
       y="111.64631"
       ry="0.27097237"
       rx="0"
       transform="matrix(0.92531544,0.37919829,-0.37121401,0.92854734,0,0)" />
    <rect
       transform="matrix(0.9134833,0.40687623,-0.3888176,0.92131475,0,0)"
       rx="0"
       ry="0.27101496"
       y="104.54526"
       x="195.07877"
       height="4.7407041"
       width="0.54202992"
       id="rect12309"
       style="display:inline;opacity:1;fill:#b5edff;fill-opacity:1;stroke:#1a77da;stroke-width:0.40003875;stroke-linecap:butt;stroke-linejoin:round;stroke-miterlimit:4;stroke-dasharray:none;stroke-opacity:1;paint-order:stroke markers fill" />
    <rect
       transform="matrix(0.89787518,0.44025012,-0.42885545,0.90337312,0,0)"
       rx="0"
       ry="0.27098861"
       y="99.513443"
       x="196.85176"
       height="2.5564232"
       width="0.54197723"
       id="rect12311"
       style="display:inline;opacity:1;fill:#b5edff;fill-opacity:1;stroke:#1a77da;stroke-width:0.41801673;stroke-linecap:butt;stroke-linejoin:round;stroke-miterlimit:4;stroke-dasharray:none;stroke-opacity:1;paint-order:stroke markers fill" />
    <rect
       style="opacity:1;fill:#b5edff;fill-opacity:1;stroke:#1a77da;stroke-width:0.40000033;stroke-linecap:butt;stroke-linejoin:round;stroke-miterlimit:4;stroke-dasharray:none;stroke-opacity:1;paint-order:stroke markers fill"
       id="rect12313"
       width="0.50442857"
       height="3.4139585"
       x="193.68269"
       y="103.00031"
       ry="0.25221428"
       transform="matrix(0.91069588,0.41307749,-0.41474463,0.90993785,0,0)" />
    <rect
       style="opacity:1;fill:#b5edff;fill-opacity:1;stroke:#1a77da;stroke-width:0.40000001;stroke-linecap:butt;stroke-linejoin:round;stroke-miterlimit:4;stroke-dasharray:none;stroke-opacity:1;paint-order:stroke markers fill"
       id="rect12315"
       width="0.51783472"
       height="1.353052"
       x="197.92641"
       y="97.347832"
       ry="0.25891736"
       transform="rotate(26.085343)" />
    <rect
       style="opacity:1;fill:#b5edff;fill-opacity:1;stroke:#1a77da;stroke-width:0.40000001;stroke-linecap:butt;stroke-linejoin:round;stroke-miterlimit:4;stroke-dasharray:none;stroke-opacity:1;paint-order:stroke markers fill"
       id="rect12317"
       width="0.53453904"
       height="1.1024867"
       x="198.69395"
       y="99.855186"
       ry="0.26726952"
       transform="rotate(24.87159)" />
    <rect
       style="opacity:1;fill:#b5edff;fill-opacity:1;stroke:#1a77da;stroke-width:0.40000001;stroke-linecap:butt;stroke-linejoin:round;stroke-miterlimit:4;stroke-dasharray:none;stroke-opacity:1;paint-order:stroke markers fill"
       id="rect12319"
       width="0.41760862"
       height="1.3363476"
       x="198.87834"
       y="102.82833"
       ry="0.20880431"
       transform="rotate(25.667671)" />
    <rect
       style="opacity:1;fill:#b5edff;fill-opacity:1;stroke:#1a77da;stroke-width:0.40000001;stroke-linecap:butt;stroke-linejoin:round;stroke-miterlimit:4;stroke-dasharray:none;stroke-opacity:1;paint-order:stroke markers fill"
       id="rect12321"
       width="0.43431297"
       height="4.4266515"
       x="193.06453"
       y="107.90314"
       ry="0.21715648"
       transform="rotate(22.577804)" />
  </g>
  <g
     style="display:inline"
     inkscape:label="thunder"
     id="g12339"
     inkscape:groupmode="layer"
     transform="translate(-106.41502,-173.12985)">
    <g
       id="g20348">
      <rect
         style="display:inline;opacity:1;fill:#4fa0e4;fill-opacity:1;stroke:#0965d6;stroke-width:0.40000743;stroke-linecap:butt;stroke-linejoin:round;stroke-miterlimit:4;stroke-dasharray:none;stroke-opacity:0.99607843;paint-order:stroke markers fill"
         id="rect12323"
         width="0.54194474"
         height="2.2765307"
         x="202.26933"
         y="108.3844"
         ry="0.27097237"
         rx="0"
         transform="matrix(0.92531544,0.37919829,-0.37121401,0.92854734,0,0)" />
      <rect
         transform="matrix(0.9134833,0.40687623,-0.3888176,0.92131475,0,0)"
         rx="0"
         ry="0.27101496"
         y="101.04811"
         x="202.89229"
         height="4.7407041"
         width="0.54202992"
         id="rect12325"
         style="display:inline;opacity:1;fill:#4fa0e4;fill-opacity:1;stroke:#0965d6;stroke-width:0.40003875;stroke-linecap:butt;stroke-linejoin:round;stroke-miterlimit:4;stroke-dasharray:none;stroke-opacity:0.99607843;paint-order:stroke markers fill" />
      <rect
         transform="matrix(0.89787518,0.44025012,-0.42885545,0.90337312,0,0)"
         rx="0"
         ry="0.27098861"
         y="95.733749"
         x="204.51021"
         height="2.5564232"
         width="0.54197723"
         id="rect12327"
         style="display:inline;opacity:1;fill:#4fa0e4;fill-opacity:1;stroke:#0965d6;stroke-width:0.41801673;stroke-linecap:butt;stroke-linejoin:round;stroke-miterlimit:4;stroke-dasharray:none;stroke-opacity:0.99607843;paint-order:stroke markers fill" />
      <rect
         style="display:inline;opacity:1;fill:#4fa0e4;fill-opacity:1;stroke:#0965d6;stroke-width:0.40000033;stroke-linecap:butt;stroke-linejoin:round;stroke-miterlimit:4;stroke-dasharray:none;stroke-opacity:0.99607843;paint-order:stroke markers fill"
         id="rect12329"
         width="0.50442857"
         height="3.4139585"
         x="201.39693"
         y="99.451263"
         ry="0.25221428"
         transform="matrix(0.91069588,0.41307749,-0.41474463,0.90993785,0,0)" />
      <rect
         style="display:inline;opacity:1;fill:#4fa0e4;fill-opacity:1;stroke:#0965d6;stroke-width:0.40000001;stroke-linecap:butt;stroke-linejoin:round;stroke-miterlimit:4;stroke-dasharray:none;stroke-opacity:0.99607843;paint-order:stroke markers fill"
         id="rect12331"
         width="0.51783472"
         height="1.353052"
         x="205.53932"
         y="93.573029"
         ry="0.25891736"
         transform="rotate(26.085343)" />
      <rect
         style="display:inline;opacity:1;fill:#4fa0e4;fill-opacity:1;stroke:#0965d6;stroke-width:0.40000001;stroke-linecap:butt;stroke-linejoin:round;stroke-miterlimit:4;stroke-dasharray:none;stroke-opacity:0.99607843;paint-order:stroke markers fill"
         id="rect12333"
         width="0.53453904"
         height="1.1024867"
         x="206.38512"
         y="96.242493"
         ry="0.26726952"
         transform="rotate(24.87159)" />
      <rect
         style="display:inline;opacity:1;fill:#4fa0e4;fill-opacity:1;stroke:#0965d6;stroke-width:0.40000001;stroke-linecap:butt;stroke-linejoin:round;stroke-miterlimit:4;stroke-dasharray:none;stroke-opacity:0.99607843;paint-order:stroke markers fill"
         id="rect12335"
         width="0.41760862"
         height="1.3363476"
         x="206.51855"
         y="99.109123"
         ry="0.20880431"
         transform="rotate(25.667671)" />
      <rect
         style="display:inline;opacity:1;fill:#4fa0e4;fill-opacity:1;stroke:#0965d6;stroke-width:0.40000001;stroke-linecap:butt;stroke-linejoin:round;stroke-miterlimit:4;stroke-dasharray:none;stroke-opacity:0.99607843;paint-order:stroke markers fill"
         id="rect12337"
         width="0.43431297"
         height="4.4266515"
         x="200.8941"
         y="104.60117"
         ry="0.21715648"
         transform="rotate(22.577804)" />
    </g>
    <path
       inkscape:connector-curvature="0"
       id="path12341"
       d="m 142.13974,177.11422 3.20982,-2.78521 -0.86816,2.008 1.49418,0.78548 -3.15374,2.72261 0.91541,-1.90169 z"
       style="display:inline;fill:#b5efff;fill-opacity:1;stroke:#1a77da;stroke-width:0.80000001;stroke-linecap:butt;stroke-linejoin:round;stroke-miterlimit:4;stroke-dasharray:none;stroke-opacity:1;paint-order:stroke markers fill" />
  </g>
  <g
     inkscape:groupmode="layer"
     id="layer6"
     inkscape:label="fog"
     transform="translate(-106.41502,-173.12985)">
    <path
       inkscape:connector-curvature="0"
       d="m 158.64369,177.18155 h 2.39781 c 0.57584,0 1.03943,0.46359 1.03943,1.03943 v 0.0827 c 0,0.57584 -0.46359,1.03943 -1.03943,1.03943 h -2.39781 c -0.57584,0 -1.03943,-0.46359 -1.03943,-1.03943 v -0.0827 c 0,-0.57584 0.46359,-1.03943 1.03943,-1.03943 z m 2.32691,-1.53554 h 2.4214 c 0.56931,0 1.02763,0.45832 1.02763,1.02763 v 0.0118 c 0,0.5693 -0.45832,1.02762 -1.02763,1.02762 h -2.4214 c -0.5693,0 -1.02762,-0.45832 -1.02762,-1.02762 v -0.0118 c 0,-0.56931 0.45832,-1.02763 1.02762,-1.02763 z m -1.18117,-1.06305 h 2.22062 c 0.57584,0 1.03943,0.46359 1.03943,1.03943 v 0.0118 c 0,0.57585 -0.46359,1.03943 -1.03943,1.03943 h -2.22062 c -0.57584,0 -1.03943,-0.46358 -1.03943,-1.03943 v -0.0118 c 0,-0.57584 0.46359,-1.03943 1.03943,-1.03943 z"
       style="display:inline;opacity:1;fill:#b5efff;fill-opacity:1;stroke:#0965d6;stroke-width:0.69999999;stroke-linecap:butt;stroke-linejoin:miter;stroke-miterlimit:4;stroke-dasharray:none;stroke-opacity:0.99607843;paint-order:stroke markers fill"
       id="rect20105"
       inkscape:label="stroke" />
    <rect
       ry="1.0394315"
       y="174.58296"
       x="158.75"
       height="2.0906808"
       width="4.299479"
       id="rect20139"
       style="display:inline;opacity:1;fill:#63aae7;fill-opacity:1;stroke:none;stroke-width:0.69999999;stroke-linecap:butt;stroke-linejoin:miter;stroke-miterlimit:4;stroke-dasharray:none;stroke-opacity:0.99607843;paint-order:stroke markers fill" />
    <rect
       ry="1.027625"
       y="175.64601"
       x="159.94298"
       height="2.0670609"
       width="4.4766488"
       id="rect20141"
       style="display:inline;opacity:1;fill:#b5efff;fill-opacity:1;stroke:none;stroke-width:0.69999999;stroke-linecap:butt;stroke-linejoin:miter;stroke-miterlimit:4;stroke-dasharray:none;stroke-opacity:0.99607843;paint-order:stroke markers fill" />
    <rect
       ry="1.0394309"
       y="177.18155"
       x="157.60426"
       height="2.1615398"
       width="4.4766626"
       id="rect20143"
       style="display:inline;opacity:1;fill:#b5efff;fill-opacity:1;stroke:none;stroke-width:0.69999999;stroke-linecap:butt;stroke-linejoin:miter;stroke-miterlimit:4;stroke-dasharray:none;stroke-opacity:0.99607843;paint-order:stroke markers fill" />
  </g>
  <g
     inkscape:label="fog 2"
     id="g20163"
     inkscape:groupmode="layer"
     transform="translate(-106.41502,-173.12985)">
    <path
       inkscape:label="stroke"
       id="path20155"
       style="display:inline;opacity:1;fill:#b5efff;fill-opacity:1;stroke:#0965d6;stroke-width:0.69999999;stroke-linecap:butt;stroke-linejoin:miter;stroke-miterlimit:4;stroke-dasharray:none;stroke-opacity:0.99607843;paint-order:stroke markers fill"
       d="m 158.64369,185.60054 h 2.39781 c 0.57584,0 1.03943,0.46359 1.03943,1.03943 v 0.0827 c 0,0.57584 -0.46359,1.03943 -1.03943,1.03943 h -2.39781 c -0.57584,0 -1.03943,-0.46359 -1.03943,-1.03943 v -0.0827 c 0,-0.57584 0.46359,-1.03943 1.03943,-1.03943 z m 2.32691,-1.53554 h 2.4214 c 0.56931,0 1.02763,0.45832 1.02763,1.02763 v 0.0118 c 0,0.5693 -0.45832,1.02762 -1.02763,1.02762 h -2.4214 c -0.5693,0 -1.02762,-0.45832 -1.02762,-1.02762 v -0.0118 c 0,-0.56931 0.45832,-1.02763 1.02762,-1.02763 z m -1.18117,-1.06305 h 2.22062 c 0.57584,0 1.03943,0.46359 1.03943,1.03943 v 0.0118 c 0,0.57585 -0.46359,1.03943 -1.03943,1.03943 h -2.22062 c -0.57584,0 -1.03943,-0.46358 -1.03943,-1.03943 v -0.0118 c 0,-0.57584 0.46359,-1.03943 1.03943,-1.03943 z"
       inkscape:connector-curvature="0" />
    <rect
       style="display:inline;opacity:1;fill:#63aae7;fill-opacity:1;stroke:none;stroke-width:0.69999999;stroke-linecap:butt;stroke-linejoin:miter;stroke-miterlimit:4;stroke-dasharray:none;stroke-opacity:0.99607843;paint-order:stroke markers fill"
       id="rect20157"
       width="4.299479"
       height="2.0906808"
       x="158.75"
       y="183.00195"
       ry="1.0394315" />
    <rect
       style="display:inline;opacity:1;fill:#b5efff;fill-opacity:1;stroke:none;stroke-width:0.69999999;stroke-linecap:butt;stroke-linejoin:miter;stroke-miterlimit:4;stroke-dasharray:none;stroke-opacity:0.99607843;paint-order:stroke markers fill"
       id="rect20159"
       width="4.4766488"
       height="2.0670609"
       x="159.94298"
       y="184.065"
       ry="1.027625" />
    <rect
       style="display:inline;opacity:1;fill:#b5efff;fill-opacity:1;stroke:none;stroke-width:0.69999999;stroke-linecap:butt;stroke-linejoin:miter;stroke-miterlimit:4;stroke-dasharray:none;stroke-opacity:0.99607843;paint-order:stroke markers fill"
       id="rect20161"
       width="4.4766626"
       height="2.1615398"
       x="157.60426"
       y="185.60054"
       ry="1.0394309" />
  </g>
  <g
     inkscape:label="fog 3"
     id="g20173"
     inkscape:groupmode="layer"
     transform="translate(-106.41502,-173.12985)">
    <path
       inkscape:label="stroke"
       id="path20165"
       style="display:inline;opacity:1;fill:#b5efff;fill-opacity:1;stroke:#0965d6;stroke-width:0.69999999;stroke-linecap:butt;stroke-linejoin:miter;stroke-miterlimit:4;stroke-dasharray:none;stroke-opacity:0.99607843;paint-order:stroke markers fill"
       d="m 141.67207,185.60054 h 2.39781 c 0.57584,0 1.03943,0.46359 1.03943,1.03943 v 0.0827 c 0,0.57584 -0.46359,1.03943 -1.03943,1.03943 h -2.39781 c -0.57584,0 -1.03943,-0.46359 -1.03943,-1.03943 v -0.0827 c 0,-0.57584 0.46359,-1.03943 1.03943,-1.03943 z m 2.32691,-1.53554 h 2.4214 c 0.56931,0 1.02763,0.45832 1.02763,1.02763 v 0.0118 c 0,0.5693 -0.45832,1.02762 -1.02763,1.02762 h -2.4214 c -0.5693,0 -1.02762,-0.45832 -1.02762,-1.02762 v -0.0118 c 0,-0.56931 0.45832,-1.02763 1.02762,-1.02763 z m -1.18117,-1.06305 h 2.22062 c 0.57584,0 1.03943,0.46359 1.03943,1.03943 v 0.0118 c 0,0.57585 -0.46359,1.03943 -1.03943,1.03943 h -2.22062 c -0.57584,0 -1.03943,-0.46358 -1.03943,-1.03943 v -0.0118 c 0,-0.57584 0.46359,-1.03943 1.03943,-1.03943 z"
       inkscape:connector-curvature="0" />
    <rect
       style="display:inline;opacity:1;fill:#63aae7;fill-opacity:1;stroke:none;stroke-width:0.69999999;stroke-linecap:butt;stroke-linejoin:miter;stroke-miterlimit:4;stroke-dasharray:none;stroke-opacity:0.99607843;paint-order:stroke markers fill"
       id="rect20167"
       width="4.299479"
       height="2.0906808"
       x="141.77838"
       y="183.00195"
       ry="1.0394315" />
    <rect
       style="display:inline;opacity:1;fill:#b5efff;fill-opacity:1;stroke:none;stroke-width:0.69999999;stroke-linecap:butt;stroke-linejoin:miter;stroke-miterlimit:4;stroke-dasharray:none;stroke-opacity:0.99607843;paint-order:stroke markers fill"
       id="rect20169"
       width="4.4766488"
       height="2.0670609"
       x="142.97136"
       y="184.065"
       ry="1.027625" />
    <rect
       style="display:inline;opacity:1;fill:#b5efff;fill-opacity:1;stroke:none;stroke-width:0.69999999;stroke-linecap:butt;stroke-linejoin:miter;stroke-miterlimit:4;stroke-dasharray:none;stroke-opacity:0.99607843;paint-order:stroke markers fill"
       id="rect20171"
       width="4.4766626"
       height="2.1615398"
       x="140.63264"
       y="185.60054"
       ry="1.0394309" />
  </g>
  <g
     inkscape:groupmode="layer"
     id="layer8"
     inkscape:label="snow"
     style="display:inline"
     transform="translate(-106.41502,-173.12985)">
    <path
       inkscape:connector-curvature="0"
       id="rect20243"
       d="m 169.45529,173.41629 c -0.0972,0 -0.17519,0.078 -0.17519,0.17518 v 1.10743 l -0.55655,-0.55656 c -0.0785,-0.0785 -0.20464,-0.0785 -0.28319,0 -0.0785,0.0786 -0.0785,0.20464 0,0.28319 l 0.80202,0.80201 c -0.002,0.043 0.0121,0.0845 0.0377,0.12145 v 1.19527 l -0.68626,-0.39274 -0.81235,-1.40767 c -0.0555,-0.0962 -0.17769,-0.12892 -0.27389,-0.0734 -0.0962,0.0555 -0.12892,0.17769 -0.0734,0.27389 l 0.46871,0.81183 -1.24075,-0.70951 c -0.0844,-0.0482 -0.19101,-0.0192 -0.23927,0.0651 l -0.0408,0.0713 c -0.0482,0.0844 -0.0192,0.19101 0.0651,0.23926 l 1.29191,0.73898 h -1.01854 c -0.11108,0 -0.2005,0.0894 -0.2005,0.2005 0,0.11108 0.0894,0.20051 0.2005,0.20051 h 1.71049 c 0.002,0 0.004,-0.002 0.007,-0.002 l 0.63562,0.3638 -0.68523,0.39429 h -1.63246 c -0.11108,0 -0.2005,0.0894 -0.2005,0.20051 0,0.11108 0.0894,0.2005 0.2005,0.2005 h 0.93586 l -1.24075,0.71365 c -0.0842,0.0485 -0.11305,0.15556 -0.0646,0.23978 l 0.0408,0.0708 c 0.0485,0.0842 0.15556,0.11305 0.23978,0.0646 l 1.22008,-0.70228 -0.47336,0.82011 c -0.0555,0.0962 -0.0228,0.21834 0.0734,0.27388 0.0962,0.0555 0.21835,0.0228 0.27389,-0.0734 l 0.81959,-1.41955 0.6997,-0.40256 v 1.31206 l -0.83974,0.83975 c -0.0786,0.0785 -0.0786,0.20516 0,0.2837 0.0785,0.0786 0.20464,0.0786 0.28318,0 l 0.55656,-0.55655 v 1.21284 c 0,0.0972 0.078,0.1757 0.17518,0.1757 h 0.0822 c 0.0972,0 0.17519,-0.0785 0.17519,-0.1757 v -1.20819 l 0.58084,0.58084 c 0.0786,0.0785 0.20516,0.0785 0.28371,0 0.0785,-0.0786 0.0785,-0.20516 0,-0.28371 l -0.84233,-0.84232 c -2.6e-4,-0.0297 -0.009,-0.0585 -0.0222,-0.0858 v -1.26711 l 0.68833,0.39326 c 0.0162,0.0189 0.0352,0.0342 0.0574,0.046 l 0.81235,1.40767 c 0.0555,0.0962 0.17769,0.12892 0.27389,0.0734 0.0962,-0.0555 0.12892,-0.17769 0.0734,-0.27389 l -0.47956,-0.83095 1.21595,0.69556 c 0.0843,0.0483 0.19101,0.0192 0.23926,-0.0651 l 0.0408,-0.0708 c 0.0482,-0.0843 0.0192,-0.19153 -0.0651,-0.23978 l -1.17254,-0.67076 h 0.86455 c 0.11108,0 0.2005,-0.0894 0.2005,-0.2005 0,-0.11108 -0.0894,-0.20051 -0.2005,-0.20051 h -1.5658 l -0.75241,-0.43046 0.81081,-0.46664 h 1.54254 c 0.11108,0 0.2005,-0.0894 0.2005,-0.2005 0,-0.11109 -0.0894,-0.20051 -0.2005,-0.20051 h -0.84595 l 1.11466,-0.6413 c 0.0842,-0.0485 0.11306,-0.15504 0.0646,-0.23926 l -0.0408,-0.0713 c -0.0485,-0.0842 -0.15504,-0.11254 -0.23927,-0.0641 l -1.18804,0.68316 0.45631,-0.79013 c 0.0555,-0.0962 0.0228,-0.21834 -0.0734,-0.27388 -0.0962,-0.0555 -0.21835,-0.0228 -0.27389,0.0734 l -0.7798,1.35082 c -0.0289,0.0159 -0.0519,0.0386 -0.0698,0.0661 l -0.70848,0.40772 v -1.23248 c 0.0152,-0.0306 0.0227,-0.0633 0.0212,-0.0966 l 0.80254,-0.80254 c 0.0785,-0.0786 0.0785,-0.20464 0,-0.28319 -0.0786,-0.0785 -0.20517,-0.0785 -0.28371,0 l -0.54002,0.54054 v -1.09141 c 0,-0.0972 -0.078,-0.17518 -0.17518,-0.17518 z"
       style="opacity:1;fill:none;fill-opacity:1;stroke:#2077d9;stroke-width:0.5;stroke-linecap:butt;stroke-linejoin:miter;stroke-miterlimit:4;stroke-dasharray:none;stroke-opacity:0.9372549;paint-order:stroke markers fill" />
    <g
       id="g20316"
       style="display:inline;stroke:none;stroke-opacity:0.9372549">
      <rect
         ry="0.17539562"
         y="173.41624"
         x="169.28015"
         height="7.1561465"
         width="0.43264207"
         id="rect20286"
         style="opacity:1;fill:#a1def9;fill-opacity:1;stroke:none;stroke-width:0.5;stroke-linecap:butt;stroke-linejoin:miter;stroke-miterlimit:4;stroke-dasharray:none;stroke-opacity:0.9372549;paint-order:stroke markers fill" />
      <rect
         transform="rotate(-60.226597)"
         style="opacity:1;fill:#a1def9;fill-opacity:1;stroke:none;stroke-width:0.5;stroke-linecap:butt;stroke-linejoin:miter;stroke-miterlimit:4;stroke-dasharray:none;stroke-opacity:0.9372549;paint-order:stroke markers fill"
         id="rect20288"
         width="0.43264207"
         height="7.1561465"
         x="-69.61293"
         y="231.40977"
         ry="0.17539562" />
      <rect
         ry="0.17539562"
         y="-62.269936"
         x="237.67114"
         height="7.1561465"
         width="0.43264207"
         id="rect20290"
         style="opacity:1;fill:#a1def9;fill-opacity:1;stroke:none;stroke-width:0.5;stroke-linecap:butt;stroke-linejoin:miter;stroke-miterlimit:4;stroke-dasharray:none;stroke-opacity:0.9372549;paint-order:stroke markers fill"
         transform="rotate(60.08562)" />
      <rect
         transform="rotate(45)"
         ry="0.20050609"
         y="6.2416072"
         x="246.00018"
         height="1.7487264"
         width="0.40101218"
         id="rect20292"
         style="opacity:1;fill:#a1def9;fill-opacity:1;stroke:none;stroke-width:0.50393969;stroke-linecap:butt;stroke-linejoin:miter;stroke-miterlimit:4;stroke-dasharray:none;stroke-opacity:0.9372549;paint-order:stroke markers fill" />
      <rect
         style="opacity:1;fill:#a1def9;fill-opacity:1;stroke:none;stroke-width:0.50393969;stroke-linecap:butt;stroke-linejoin:miter;stroke-miterlimit:4;stroke-dasharray:none;stroke-opacity:0.9372549;paint-order:stroke markers fill"
         id="rect20294"
         width="0.40101218"
         height="1.7487264"
         x="6.2994838"
         y="245.98363"
         ry="0.20050609"
         transform="matrix(-0.70710678,0.70710678,0.70710678,0.70710678,0,0)" />
      <rect
         style="opacity:1;fill:#a1def9;fill-opacity:1;stroke:none;stroke-width:0.50393969;stroke-linecap:butt;stroke-linejoin:miter;stroke-miterlimit:4;stroke-dasharray:none;stroke-opacity:0.9372549;paint-order:stroke markers fill"
         id="rect20296"
         width="0.40101218"
         height="1.7487264"
         x="3.8314147"
         y="-243.991"
         ry="0.20050609"
         transform="rotate(135)" />
      <rect
         transform="matrix(0.70710678,0.70710678,0.70710678,-0.70710678,0,0)"
         ry="0.20050609"
         y="-4.2985735"
         x="243.52382"
         height="1.7487264"
         width="0.40101218"
         id="rect20298"
         style="opacity:1;fill:#a1def9;fill-opacity:1;stroke:none;stroke-width:0.50393969;stroke-linecap:butt;stroke-linejoin:miter;stroke-miterlimit:4;stroke-dasharray:none;stroke-opacity:0.9372549;paint-order:stroke markers fill" />
      <rect
         style="opacity:1;fill:#a1def9;fill-opacity:1;stroke:none;stroke-width:0.55371135;stroke-linecap:butt;stroke-linejoin:miter;stroke-miterlimit:4;stroke-dasharray:none;stroke-opacity:0.9372549;paint-order:stroke markers fill"
         id="rect20300"
         width="0.40101218"
         height="2.1112106"
         x="235.69109"
         y="-67.597855"
         ry="0.20050609"
         transform="matrix(0.8660254,0.5,0.5,-0.8660254,0,0)" />
      <rect
         transform="matrix(0,1,1,0,0,0)"
         ry="0.20050609"
         y="170.38567"
         x="176.05612"
         height="2.1112106"
         width="0.40101218"
         id="rect20302"
         style="opacity:1;fill:#a1def9;fill-opacity:1;stroke:none;stroke-width:0.55371135;stroke-linecap:butt;stroke-linejoin:miter;stroke-miterlimit:4;stroke-dasharray:none;stroke-opacity:0.9372549;paint-order:stroke markers fill" />
      <rect
         style="opacity:1;fill:#a1def9;fill-opacity:1;stroke:none;stroke-width:0.55371135;stroke-linecap:butt;stroke-linejoin:miter;stroke-miterlimit:4;stroke-dasharray:none;stroke-opacity:0.9372549;paint-order:stroke markers fill"
         id="rect20304"
         width="0.40101218"
         height="2.1112106"
         x="177.35405"
         y="170.3506"
         ry="0.20050609"
         transform="matrix(0,1,1,0,0,0)" />
      <rect
         transform="matrix(-0.8660254,0.5,0.5,0.8660254,0,0)"
         ry="0.20050609"
         y="238.86234"
         x="-59.157223"
         height="2.1112106"
         width="0.40101218"
         id="rect20306"
         style="opacity:1;fill:#a1def9;fill-opacity:1;stroke:none;stroke-width:0.55371135;stroke-linecap:butt;stroke-linejoin:miter;stroke-miterlimit:4;stroke-dasharray:none;stroke-opacity:0.9372549;paint-order:stroke markers fill" />
      <rect
         transform="matrix(0.8660254,-0.5,-0.5,-0.8660254,0,0)"
         ry="0.20050609"
         y="-237.13411"
         x="57.529915"
         height="2.1112106"
         width="0.40101218"
         id="rect20308"
         style="opacity:1;fill:#a1def9;fill-opacity:1;stroke:none;stroke-width:0.55371135;stroke-linecap:butt;stroke-linejoin:miter;stroke-miterlimit:4;stroke-dasharray:none;stroke-opacity:0.9372549;paint-order:stroke markers fill" />
      <rect
         style="opacity:1;fill:#a1def9;fill-opacity:1;stroke:none;stroke-width:0.55371135;stroke-linecap:butt;stroke-linejoin:miter;stroke-miterlimit:4;stroke-dasharray:none;stroke-opacity:0.9372549;paint-order:stroke markers fill"
         id="rect20310"
         width="0.40101218"
         height="2.1112106"
         x="-176.56233"
         y="-168.63152"
         ry="0.20050609"
         transform="matrix(0,-1,-1,0,0,0)" />
      <rect
         transform="matrix(0,-1,-1,0,0,0)"
         ry="0.20050609"
         y="-168.6666"
         x="-177.71994"
         height="2.1112106"
         width="0.40101218"
         id="rect20312"
         style="opacity:1;fill:#a1def9;fill-opacity:1;stroke:none;stroke-width:0.55371135;stroke-linecap:butt;stroke-linejoin:miter;stroke-miterlimit:4;stroke-dasharray:none;stroke-opacity:0.9372549;paint-order:stroke markers fill" />
      <rect
         style="display:inline;opacity:1;fill:#a1def9;fill-opacity:1;stroke:none;stroke-width:0.55371135;stroke-linecap:butt;stroke-linejoin:miter;stroke-miterlimit:4;stroke-dasharray:none;stroke-opacity:0.9372549;paint-order:stroke markers fill"
         id="rect20314"
         width="0.40101218"
         height="2.1112106"
         x="-234.8486"
         y="69.33757"
         ry="0.20050609"
         transform="matrix(-0.8660254,-0.5,-0.5,0.8660254,0,0)" />
    </g>
  </g>
  <g
     inkscape:groupmode="layer"
     id="layer9"
     inkscape:label="aurora"
     style="display:inline"
     transform="translate(-106.41502,-173.12985)">
    <path
       style="display:inline;fill:url(#linearGradient20337);fill-opacity:1;stroke:#0e68d6;stroke-width:0.80000001;stroke-linecap:butt;stroke-linejoin:miter;stroke-miterlimit:4;stroke-dasharray:none;stroke-opacity:1;paint-order:stroke markers fill"
       d="m 149.76243,183.70045 c 0.51829,-0.50426 1.17665,-0.64041 1.78854,-0.31621 0.23968,0.0954 0.66828,0.83996 0.99366,0.96496 0.40634,0.30746 0.94562,0.16867 1.11013,0.085 l 0.91978,-0.7256 c 0.23746,-0.18005 0.52127,-0.18623 0.78991,-0.0389 0.13501,0.0755 0.2174,0.23363 0.3015,0.35312 l -0.0672,1.64945 c -0.0245,0.35142 -0.16632,0.8035 -0.18922,1.11214 -0.1469,-0.0547 -0.92131,-0.24682 -1.1677,-0.0996 -0.23432,0.0992 -0.92467,0.81174 -1.3169,0.94711 -0.18184,0.0849 -0.47486,0.0824 -0.74414,0.0579 -0.49053,-0.14352 -0.67295,-0.6051 -1.09028,-0.90236 -0.21253,-0.14437 -0.44338,-0.15251 -0.84448,-0.0692 l -0.8475,0.35553 z"
       id="path20321"
       inkscape:connector-curvature="0"
       sodipodi:nodetypes="cccccccccccccccc" />
  </g>
  <g
     inkscape:groupmode="layer"
     id="layer10"
     inkscape:label="crystal sheet"
     style="display:inline"
     transform="translate(-106.41502,-173.12985)">
    <g
       id="g20384"
       style="display:inline">
      <rect
         style="display:inline;opacity:1;fill:#4fa0e4;fill-opacity:1;stroke:#0965d6;stroke-width:0.40000743;stroke-linecap:butt;stroke-linejoin:round;stroke-miterlimit:4;stroke-dasharray:none;stroke-opacity:0.99607843;paint-order:stroke markers fill"
         id="rect20350"
         width="0.54194474"
         height="2.2765307"
         x="181.82333"
         y="125.8879"
         ry="0.27097237"
         rx="0"
         transform="matrix(0.92531544,0.37919829,-0.37121401,0.92854734,0,0)" />
      <rect
         transform="matrix(0.9134833,0.40687622,-0.38881759,0.92131476,0,0)"
         rx="0"
         ry="0.27101496"
         y="119.15737"
         x="182.77661"
         height="4.7407041"
         width="0.54202992"
         id="rect20352"
         style="display:inline;opacity:1;fill:#4fa0e4;fill-opacity:1;stroke:#0965d6;stroke-width:0.40003875;stroke-linecap:butt;stroke-linejoin:round;stroke-miterlimit:4;stroke-dasharray:none;stroke-opacity:0.99607843;paint-order:stroke markers fill" />
      <rect
         transform="matrix(0.89787517,0.44025013,-0.42885545,0.90337312,0,0)"
         rx="0"
         ry="0.27098861"
         y="114.55659"
         x="185.19321"
         height="2.5564232"
         width="0.54197723"
         id="rect20354"
         style="display:inline;opacity:1;fill:#4fa0e4;fill-opacity:1;stroke:#0965d6;stroke-width:0.41801673;stroke-linecap:butt;stroke-linejoin:round;stroke-miterlimit:4;stroke-dasharray:none;stroke-opacity:0.99607843;paint-order:stroke markers fill" />
      <rect
         style="display:inline;opacity:1;fill:#4fa0e4;fill-opacity:1;stroke:#0965d6;stroke-width:0.40000033;stroke-linecap:butt;stroke-linejoin:round;stroke-miterlimit:4;stroke-dasharray:none;stroke-opacity:0.99607843;paint-order:stroke markers fill"
         id="rect20356"
         width="0.50442857"
         height="3.4139585"
         x="181.79465"
         y="117.69096"
         ry="0.25221428"
         transform="matrix(0.91069588,0.41307749,-0.41474464,0.90993785,0,0)" />
      <rect
         style="display:inline;opacity:1;fill:#4fa0e4;fill-opacity:1;stroke:#0965d6;stroke-width:0.40000001;stroke-linecap:butt;stroke-linejoin:round;stroke-miterlimit:4;stroke-dasharray:none;stroke-opacity:0.99607843;paint-order:stroke markers fill"
         id="rect20358"
         width="0.51783472"
         height="1.353052"
         x="186.44913"
         y="112.38287"
         ry="0.25891736"
         transform="rotate(26.085343)" />
      <rect
         style="display:inline;opacity:1;fill:#4fa0e4;fill-opacity:1;stroke:#0965d6;stroke-width:0.40000001;stroke-linecap:butt;stroke-linejoin:round;stroke-miterlimit:4;stroke-dasharray:none;stroke-opacity:0.99607843;paint-order:stroke markers fill"
         id="rect20360"
         width="0.53453904"
         height="1.1024867"
         x="186.90077"
         y="114.64374"
         ry="0.26726952"
         transform="rotate(24.87159)" />
      <rect
         style="display:inline;opacity:1;fill:#4fa0e4;fill-opacity:1;stroke:#0965d6;stroke-width:0.40000001;stroke-linecap:butt;stroke-linejoin:round;stroke-miterlimit:4;stroke-dasharray:none;stroke-opacity:0.99607843;paint-order:stroke markers fill"
         id="rect20362"
         width="0.41760862"
         height="1.3363476"
         x="187.29176"
         y="117.7793"
         ry="0.20880431"
         transform="rotate(25.667671)" />
      <rect
         style="display:inline;opacity:1;fill:#4fa0e4;fill-opacity:1;stroke:#0965d6;stroke-width:0.40000001;stroke-linecap:butt;stroke-linejoin:round;stroke-miterlimit:4;stroke-dasharray:none;stroke-opacity:0.99607843;paint-order:stroke markers fill"
         id="rect20364"
         width="0.43431297"
         height="4.4266515"
         x="180.68889"
         y="122.20785"
         ry="0.21715648"
         transform="rotate(22.577803)" />
    </g>
    <path
       style="display:inline;opacity:1;fill:#b5efff;fill-opacity:1;stroke:#0e68d6;stroke-width:1.88976383;stroke-linecap:butt;stroke-linejoin:miter;stroke-miterlimit:4;stroke-dasharray:none;stroke-opacity:1;paint-order:stroke markers fill"
       d="m 442.04688,693.33203 c -0.1991,0 -0.35938,0.16028 -0.35938,0.35938 v 3.53125 c 0,0.0401 0.01,0.0774 0.0215,0.11328 a 2.0218833,2.0218833 0 0 0 -1.61523,1.54297 h -3.4375 c -0.19909,0 -0.35937,0.16028 -0.35937,0.35937 0,0.1991 0.16028,0.35938 0.35937,0.35938 h 3.40625 a 2.0218833,2.0218833 0 0 0 1.5957,1.70898 c -9e-5,0.003 -0.002,0.006 -0.002,0.01 v 3.53125 c 0,0.19909 0.16028,0.35937 0.35937,0.35937 0.1991,0 0.35938,-0.16028 0.35938,-0.35937 v -3.52344 a 2.0218833,2.0218833 0 0 0 1.67969,-1.66406 h 3.50781 c 0.19909,0 0.35938,-0.16028 0.35938,-0.35938 0,-0.19909 -0.16029,-0.35937 -0.35938,-0.35937 h -3.51758 a 2.0218833,2.0218833 0 0 0 -1.66015,-1.60743 c 0.0116,-0.0354 0.0215,-0.0719 0.0215,-0.11132 v -3.53125 c 0,-0.1991 -0.16028,-0.35938 -0.35937,-0.35938 z"
       transform="scale(0.26458333)"
       id="rect20392"
       inkscape:connector-curvature="0" />
    <path
       sodipodi:type="star"
       style="opacity:1;fill:#b5efff;fill-opacity:1;stroke:#0e68d6;stroke-width:0.5;stroke-linecap:butt;stroke-linejoin:round;stroke-miterlimit:4;stroke-dasharray:none;stroke-opacity:1;paint-order:stroke markers fill"
       id="path20406"
       sodipodi:sides="4"
       sodipodi:cx="119.6046"
       sodipodi:cy="186.62558"
       sodipodi:r1="0.8360526"
       sodipodi:r2="0.130372"
       sodipodi:arg1="1.5707963"
       sodipodi:arg2="2.2715116"
       inkscape:flatsided="false"
       inkscape:rounded="0"
       inkscape:randomized="0"
       d="m 119.6046,187.46163 -0.0841,-0.7364 -0.75199,-0.0996 0.7364,-0.0841 0.0997,-0.75199 0.0841,0.7364 0.75199,0.0997 -0.7364,0.0841 z"
       inkscape:transform-center-x="1.5027492e-06"
       inkscape:transform-center-y="-2.3475534e-06" />
    <path
       d="m 120.35294,184.5104 -0.0777,-0.68089 -0.69531,-0.0921 0.68089,-0.0777 0.0921,-0.69531 0.0777,0.68089 0.69531,0.0922 -0.68089,0.0777 z"
       inkscape:randomized="0"
       inkscape:rounded="0"
       inkscape:flatsided="false"
       sodipodi:arg2="2.2715116"
       sodipodi:arg1="1.5707963"
       sodipodi:r2="0.12054479"
       sodipodi:r1="0.77303237"
       sodipodi:cy="183.73737"
       sodipodi:cx="120.35294"
       sodipodi:sides="4"
       id="path20408"
       style="opacity:1;fill:#b5efff;fill-opacity:1;stroke:#0e68d6;stroke-width:0.46231088;stroke-linecap:butt;stroke-linejoin:round;stroke-miterlimit:4;stroke-dasharray:none;stroke-opacity:1;paint-order:stroke markers fill"
       sodipodi:type="star" />
  </g>
  <g
     inkscape:groupmode="layer"
     id="layer11"
     inkscape:label="petal rain"
     style="display:inline"
     transform="translate(-106.41502,-173.12985)">
    <path
       style="display:inline;fill:#b5efff;fill-opacity:1;stroke:#116cd8;stroke-width:0.60000002;stroke-linecap:butt;stroke-linejoin:miter;stroke-miterlimit:4;stroke-dasharray:none;stroke-opacity:0.99607843;paint-order:stroke markers fill"
       d="m 134.61771,183.12268 c 0.13892,0.0395 0.26067,0.002 0.26383,-0.12116 0.005,-0.21254 -0.0242,-0.49829 -0.0164,-0.71907 0.0198,-0.11529 0.68837,0.37362 0.90181,0.57577 0.22336,0.17147 0.49563,0.5945 0.55126,1.11509 -0.0454,0.88619 0.13485,1.25994 0.26459,1.57096 -0.28097,-0.0682 -0.55407,-0.13079 -0.90951,-0.25219 -0.25607,-0.094 -0.54876,-0.22378 -0.78961,-0.3762 -0.17961,-0.11018 -0.36836,-0.21706 -0.73174,-0.98392 -0.10902,-0.32745 -0.16884,-1.20314 -0.0681,-1.17337 0.0888,-0.003 0.32606,0.21872 0.53385,0.36409 z"
       id="path20411"
       inkscape:connector-curvature="0"
       sodipodi:nodetypes="csccccccccc" />
    <path
       style="opacity:1;fill:#b5efff;fill-opacity:1;stroke:#116cd8;stroke-width:1.88976383;stroke-linecap:butt;stroke-linejoin:round;stroke-miterlimit:4;stroke-dasharray:none;stroke-opacity:0.99607843;paint-order:stroke markers fill"
       d="m 514.201,709.39244 c -0.10535,-0.0277 -0.5993,-0.39971 -0.5956,-0.4383 0.003,-0.0348 0.49248,-0.0218 0.72055,-0.0525 0.66586,-0.13935 1.19505,-0.41356 1.82958,-0.59463 0.94762,-0.37739 1.55434,-0.84174 2.25906,-1.43888 0.38558,-0.4283 0.77263,-0.77018 1.14722,-1.17066 0.33523,-0.37855 0.76643,-0.73414 1.09062,-1.05785 0.2004,-0.18913 0.69719,-0.001 0.66523,0.0435 0.27788,0.21702 0.37434,0.5886 0.57719,0.88718 0.1132,0.21778 0.5749,0.0829 0.57141,-0.006 0.35279,-0.3376 0.25051,-0.37271 0.61442,-0.54733 0.13725,-0.10817 0.55731,-0.28133 0.87812,-0.3024 0.32014,-0.043 0.44302,0.0565 0.5465,0.30922 0.0585,0.49441 0.017,0.91581 -0.0451,1.35534 -0.12395,1.14076 -0.84594,2.43438 -1.59878,3.10163 -0.6833,0.51177 -1.41979,0.79683 -2.12111,1.0207 -0.67652,0.18466 -1.43394,0.21101 -2.03906,0.2673 -1.7273,0.18587 -3.1195,-0.66698 -4.50025,-1.37653 z"
       id="path20419"
       inkscape:connector-curvature="0"
       transform="scale(0.26458333)"
       sodipodi:nodetypes="cscccccccccccccccc" />
    <path
       style="display:inline;opacity:1;fill:#b5efff;fill-opacity:1;stroke:#116cd8;stroke-width:1.88976383;stroke-linecap:butt;stroke-linejoin:round;stroke-miterlimit:4;stroke-dasharray:none;stroke-opacity:0.99607843;paint-order:stroke markers fill"
       d="m 505.82948,712.4531 c -1.04484,-0.19258 -1.98014,-0.62596 -2.81317,-1.09431 -0.0404,-0.0252 -1.08595,-0.58282 -1.10945,-0.70241 -1.02721,-0.87239 -1.52914,-1.31688 -1.72707,-2.78212 -0.0334,-0.70208 -0.0671,-1.54075 0.7435,-0.89302 0.46775,0.1384 0.38609,-0.16675 0.40586,-0.33428 -0.13722,-1.16743 0.85911,-1.03598 1.33763,-0.65301 0.93468,0.38311 1.03206,0.61776 2.20372,0.8218 0.53365,0.60374 1.68675,2.38879 2.36172,3.26688 0.61233,0.74189 1.01405,1.16498 1.32174,1.4948 0.0628,0.0518 0.5016,0.52315 0.804,0.74368 -1.19387,0.19567 -2.44457,0.26489 -3.52848,0.13199 z"
       id="path20423"
       inkscape:connector-curvature="0"
       transform="scale(0.26458333)"
       sodipodi:nodetypes="cccccccccccc" />
  </g>
  <g
     inkscape:groupmode="layer"
     id="layer7"
     inkscape:label="heavy storm"
     style="display:inline"
     transform="translate(-106.41502,-173.12985)">
    <path
       style="display:inline;opacity:1;fill:#63aae7;fill-opacity:1;stroke:#1c75db;stroke-width:2.64566922;stroke-linecap:butt;stroke-linejoin:round;stroke-miterlimit:4;stroke-dasharray:none;stroke-opacity:1;paint-order:stroke markers fill"
       d="m 571.56467,677.97978 1.4617,-2.96211 1.39729,-2.71263 -0.70944,-0.54393 -0.94157,-0.28892 -0.62275,1.1366 -0.80882,1.80582 -0.92829,1.6656 c -0.59057,1.01451 -0.75717,1.15493 -1.03722,1.59022 -0.13138,0.22927 -0.57125,0.56466 -1.09202,0.73433 -0.58601,0.19092 -1.47368,0.14924 -1.57711,0.13333 0,0 -1.03242,-0.14489 -1.38868,-0.4158 -0.1128,-0.0858 -0.58241,-0.45303 -0.94553,-0.84206 -0.22437,-0.24038 -0.63803,-0.93198 -0.68053,-1.27495 -0.0258,-0.20778 -0.1152,-1.13368 0.11773,-1.7439 0.29742,-0.77918 0.81568,-1.29031 1.06136,-1.31203 0.40253,-0.0356 0.64727,0.0714 0.59561,0.46661 -0.0111,0.0849 -1.03731,1.22276 -0.97559,2.01453 0.0634,0.81259 0.72669,1.50989 1.0011,1.71512 0.89477,0.66919 2.19872,0.49705 2.50917,0.35458 0.1863,-0.0855 0.96802,-0.75575 1.21878,-1.29233 0.47709,-0.81134 1.13564,-1.91966 1.29435,-2.26692 0.462,-1.01087 1.12648,-2.39087 1.1144,-2.48223 0.13134,-0.65848 -0.088,-1.08687 -0.3455,-1.36801 -0.1897,-0.27651 -1.21591,-0.3775 -2.03374,-0.0376 -0.32686,0.11533 -0.78335,-0.007 -0.931,-0.25008 -0.0464,-0.0763 -0.0973,-0.21498 -0.113,-0.30813 -0.0259,-0.15347 -0.0137,-0.18381 0.13007,-0.32346 0.17018,-0.16526 0.41782,-0.53464 0.50562,-0.75415 0.0675,-0.16878 0.01,-0.9418 0.002,-1.27931 -0.041,-0.24742 0.0478,-0.63921 -0.20162,-0.70755 -0.36191,-0.11301 -0.98393,0.25354 -1.36042,0.33527 -0.34428,0.13085 -1.05274,0.10382 -1.47867,-0.0391 -0.82309,-0.0569 -1.13676,-0.48526 -1.48264,-1.09843 -0.24588,-0.52469 -0.19875,-0.76242 -0.29346,-1.3206 -0.0258,-0.62697 0.39741,-1.35417 0.9113,-1.48811 1.2428,-0.50998 1.91475,0.1719 2.22407,0.45526 0.38924,0.36415 1.14137,1.48806 1.91686,1.7487 0.64596,0.10215 3.14306,0.11704 3.63624,0.0217 0.33803,-0.0654 0.62379,-0.22649 0.93912,-0.52953 0.22738,-0.21457 0.12997,-0.49379 0.18783,-0.75856 0.023,-0.48598 -0.0137,-0.60489 -0.0865,-0.74751 -0.10631,-0.20838 -0.30973,-0.38476 -0.50638,-0.43906 -0.1632,-0.1598 -0.59451,-0.0901 -1.05193,0.24138 -0.40174,1.06352 -0.94848,0.71581 -1.51186,0.70891 -2.32673,-0.13797 -2.12178,-2.60708 -1.99055,-4.27859 0.67774,-1.97662 2.18198,-2.46072 3.5562,-2.33613 1.45896,0.0738 2.39503,0.77309 3.5051,1.49897 0.16555,0.31334 0.55317,0.44169 0.68639,-0.006 1.13241,-1.52682 1.39095,-2.38301 3.39347,-2.66967 2.72626,-0.29988 4.25982,0.57133 5.21822,2.5039 0.18481,1.1667 -0.5875,1.30727 -1.33973,1.66037 -0.5642,0.75127 -0.96696,1.32497 -1.27837,2.10407 -0.065,0.76394 0.0637,0.98236 0.41296,1.51682 0.35739,0.17092 0.53497,0.24702 1.28378,0.111 0.19987,-0.18058 0.50734,-0.61329 0.58632,-1.01699 0.43732,-1.37001 0.75532,-1.75082 1.95979,-1.73687 1.7529,0.48878 2.35824,1.63347 2.63029,2.90112 0.18968,1.02229 -0.0352,2.44948 -0.52013,2.74815 -1.07038,0.56428 -1.76304,0.98076 -2.77336,1.51674 -0.52277,0.50897 -0.79695,1.35389 -1.02784,1.78729 l -0.81897,2.20407 c -0.0732,0.30785 -0.89702,0.56552 -0.71451,-0.21406 l 0.77202,-2.02352 0.58811,-1.50537 c 0.12702,-0.32513 -0.11829,-0.87298 -0.26094,-1.11641 -0.11478,-0.19586 -0.33088,-0.36225 -0.47083,-0.36255 -0.0917,-1.7e-4 -0.45943,0.32594 -0.49544,0.43938 -0.0273,0.0859 -0.26457,0.21616 -0.64996,0.35688 -0.27951,0.10206 -0.48254,0.29818 -0.5639,0.54472 l -0.7731,1.57948 -3.46604,7.24139 -1.52622,3.11101 c -0.60963,0.61714 -0.99062,0.12272 -0.76748,-0.49646 l 2.25,-4.6875 c 0.22652,-0.42377 0.83504,-1.34312 0.47583,-1.58007 -0.37112,-0.29275 -0.84121,-0.30017 -1.30768,-0.43069 -0.23169,-0.0665 -1.31428,-0.59587 -1.49093,-0.41555 l -1.74754,3.1609 -1.6082,2.83914 c -0.52046,0.54516 -1.01543,-0.14678 -0.84709,-0.48993 z"
       id="path904"
       inkscape:connector-curvature="0"
       transform="scale(0.26458333)"
       sodipodi:nodetypes="cccccccccscssssssssscsccccccccccccccccccccccccccccccccccccccccccscccccccccccccccc" />
    <path
       inkscape:connector-curvature="0"
       id="path906"
       d="m 150.68033,177.03715 3.20982,-2.78521 -0.86816,2.008 1.49418,0.78548 -3.15374,2.72261 0.91541,-1.90169 z"
       style="display:inline;fill:#b5efff;fill-opacity:1;stroke:none;stroke-width:0.80000001;stroke-linecap:butt;stroke-linejoin:round;stroke-miterlimit:4;stroke-dasharray:none;stroke-opacity:1;paint-order:stroke markers fill" />
    <rect
       style="opacity:1;fill:#63aae7;fill-opacity:1;stroke:#1a77da;stroke-width:0.40000001;stroke-linecap:butt;stroke-linejoin:round;stroke-miterlimit:4;stroke-dasharray:none;stroke-opacity:1;paint-order:stroke markers fill"
       id="rect909"
       width="0.27285156"
       height="0.64492184"
       x="207.4742"
       y="112.18312"
       ry="0.13642578"
       transform="rotate(20.849025)" />
    <rect
       style="opacity:1;fill:#63aae7;fill-opacity:1;stroke:#1a77da;stroke-width:0.40000001;stroke-linecap:butt;stroke-linejoin:round;stroke-miterlimit:4;stroke-dasharray:none;stroke-opacity:1;paint-order:stroke markers fill"
       id="rect911"
       width="0.34726563"
       height="1.6205729"
       x="209.15718"
       y="109.38985"
       ry="0.17363282"
       transform="rotate(21.24595)" />
  </g>
  <g
     inkscape:groupmode="layer"
     id="layer12"
     inkscape:label="sandstorm"
     transform="translate(-106.41502,-173.12985)">
    <path
       style="display:inline;opacity:1;fill:#b5efff;fill-opacity:1;stroke:#1e77db;stroke-width:2.26771665;stroke-linecap:butt;stroke-linejoin:round;stroke-miterlimit:4;stroke-dasharray:none;stroke-opacity:1;paint-order:stroke markers fill"
       d="m 415.07544,711.32619 c -0.2515,-0.43038 -0.43969,-0.83839 -0.27527,-1.13813 l 1.21787,-0.50601 c 0.64074,-0.48483 0.9505,-0.76417 1.43304,-1.40292 -0.52196,-0.81281 -1.35826,-0.88434 -2.17327,-0.56074 -0.74334,0.26624 -1.30558,0.0495 -1.61836,-0.0379 -0.24322,-0.39275 -0.009,-1.37221 -0.0506,-1.59877 1.48541,-0.8105 2.31661,-1.17884 3.88583,-1.87769 l 3.72083,-1.93388 c -0.91009,-0.60543 -2.07856,-0.59477 -3.2282,-0.70337 -3.12446,-0.0901 -4.50869,-0.0543 -5.52617,0.14302 -0.99694,0.0801 -0.99188,0.25934 -1.51319,0.89519 -0.47797,-0.45495 -0.45966,-1.50859 -0.36167,-2.51256 1.6139,-0.7778 3.2278,-1.06731 4.8417,-1.38828 l 3.46527,-0.8354 2.83766,-0.80043 c 0.91412,-0.3028 1.71097,-0.28242 1.91004,-1.05943 -0.0645,-1.11378 -3.101,-1.15886 -4.15109,-1.40983 -0.44387,-0.0617 -5.39102,-0.0616 -5.83363,1.3e-4 -2.53966,5.2e-4 -6.03881,1.20491 -7.48999,1.91373 l 0.029,-4.38039 c 3.03693,-1.70407 7.01451,-2.43102 10.22156,-2.22039 3.82171,0.13979 7.61873,0.13471 10.74888,2.43355 l -0.0217,3.83353 c -0.70552,0.96022 -1.54188,1.25256 -2.2258,1.52468 -1.1897,0.41205 -2.68094,1.20817 -4.0521,1.65922 0.30097,0.20529 1.23325,0.29594 1.42322,0.58528 0.7388,0.50851 0.78702,1.49648 0.66987,2.04368 -0.2487,0.63699 -0.5745,0.9099 -1.21585,1.25623 -1.1417,0.76792 -1.0074,0.63022 -2.0458,1.17129 -0.16341,0.14051 -1.62794,0.6938 -1.7375,0.92311 0.0197,0.42642 -1.28794,0.93426 -1.25683,0.96574 0.14137,0.14304 1.37679,0.18092 1.67653,0.26301 0.40561,0.048 0.91597,0.2639 1.18777,0.50193 0.0562,0.60291 -0.20291,1.0219 -0.37589,1.3127 -0.48293,0.52019 -1.20865,1.33726 -1.45034,1.50171 -0.25885,0.28516 -1.34212,1.23288 -1.80615,1.72089 -0.63282,0.0374 -0.59179,0.0189 -0.85967,-0.28252 z"
       id="path920"
       inkscape:connector-curvature="0"
       transform="scale(0.26458333)"
       sodipodi:nodetypes="cccccccccccccccccccccccccccccccsccccccc" />
    <path
       style="display:inline;opacity:1;fill:#b5ebff;fill-opacity:1;stroke:#0765d6;stroke-width:1.88976383;stroke-linecap:butt;stroke-linejoin:round;stroke-miterlimit:4;stroke-dasharray:none;stroke-opacity:0.83431373;paint-order:stroke markers fill"
       d="m 406.07646,711.53662 c -0.48517,-0.69023 -0.65034,-1.18208 -0.22696,-1.53857 0.15609,-0.23333 0.35046,-0.13981 0.81705,-0.17188 0.23374,-0.0161 -0.0433,-0.433 0.29302,-0.81091 0.37688,-0.42355 1.34061,0.0687 1.24032,0.19228 0.6694,0.57305 0.0216,1.3608 0.59373,1.96058 0.6934,0.73771 1.20258,0.74096 1.89638,0.92218 0.24118,0.0532 0.14235,0.28855 -0.0596,0.36016 -1.19274,0.38319 -2.35995,0.32376 -3.00886,-0.0504 -0.56957,-0.21853 -1.01161,-0.52184 -1.54506,-0.86344 z"
       id="path922"
       inkscape:connector-curvature="0"
       transform="scale(0.26458333)"
       sodipodi:nodetypes="ccsscccccc" />
    <path
       style="display:inline;opacity:1;fill:#b5ebff;fill-opacity:1;stroke:#0765d6;stroke-width:1.88976383;stroke-linecap:butt;stroke-linejoin:round;stroke-miterlimit:4;stroke-dasharray:none;stroke-opacity:0.83431373;paint-order:stroke markers fill"
       d="m 421.95501,712.59436 c -0.26544,-0.11135 -0.2062,-0.48243 -0.0422,-0.55308 0.0557,-0.0503 0.68912,-0.25943 0.98368,-0.28979 0.77791,-0.22138 0.56974,-0.0631 0.85696,-0.29278 0.0557,-0.14705 0.0555,-0.15391 -0.006,-0.31914 -0.23875,-0.11998 -0.73695,-0.29732 -0.75974,-0.65935 -0.11175,-0.18021 0.0635,-0.46107 0.0998,-0.58871 0.24975,-0.28576 0.49834,-0.61067 0.84697,-0.66034 0.4736,-0.0675 1.04499,0.0758 2.14303,-0.64944 0.87068,0.0388 1.36362,0.41026 1.43671,1.09097 0.10742,0.73975 -0.006,1.59103 -0.33117,1.90972 -0.50672,0.48491 -1.03625,0.65179 -1.49255,0.73469 -0.86127,0.13057 -1.79181,0.25316 -2.13391,0.26897 -0.65304,0.0698 -1.07093,0.12589 -1.60162,0.008 z"
       id="path924"
       inkscape:connector-curvature="0"
       transform="scale(0.26458333)"
       sodipodi:nodetypes="cccccccsccccccc" />
    <path
       sodipodi:type="star"
       style="display:inline;opacity:1;fill:#b5ebff;fill-opacity:1;stroke:#0765d6;stroke-width:0.40000001;stroke-linecap:butt;stroke-linejoin:round;stroke-miterlimit:4;stroke-dasharray:none;stroke-opacity:0.83431373;paint-order:stroke markers fill"
       id="path926"
       sodipodi:sides="4"
       sodipodi:cx="112.47098"
       sodipodi:cy="186.8793"
       sodipodi:r1="0.33766505"
       sodipodi:r2="0.032257784"
       sodipodi:arg1="1.5837827"
       sodipodi:arg2="2.3991419"
       inkscape:flatsided="false"
       inkscape:rounded="0"
       inkscape:randomized="0"
       d="m 112.46659,187.21694 -0.0194,-0.31583 -0.31387,-0.0262 0.31583,-0.0194 0.0262,-0.31386 0.0194,0.31582 0.31386,0.0262 -0.31582,0.0194 z"
       inkscape:transform-center-x="1.4163496e-06"
       inkscape:transform-center-y="-2.3535933e-06" />
  </g>
  <g
     inkscape:groupmode="layer"
     id="layer13"
     inkscape:label="geothermal haze"
     style="display:inline"
     transform="translate(-106.41502,-173.12985)">
    <path
       style="display:inline;opacity:1;fill:#5aa6e7;fill-opacity:1;stroke:#0765d6;stroke-width:2.26771665;stroke-linecap:butt;stroke-linejoin:round;stroke-miterlimit:4;stroke-dasharray:none;stroke-opacity:0.83431373;paint-order:stroke markers fill"
       d="m 489.81461,695.44072 c -0.29577,-0.0995 -0.33758,-0.12269 -0.41979,-0.23251 -0.0781,-0.10427 -0.21249,-0.22534 -0.30389,-0.27371 -0.0274,-0.0145 -0.0497,-0.0415 -0.0497,-0.06 0,-0.0185 -0.009,-0.0283 -0.0193,-0.0218 -0.0106,0.007 -0.0366,-0.0351 -0.0579,-0.0926 -0.0212,-0.0575 -0.0579,-0.13839 -0.0815,-0.17981 -0.0967,-0.16983 -0.1059,-0.23516 -0.10623,-0.75594 l -3.2e-4,-0.49979 0.0925,-0.16313 c 0.16595,-0.29273 0.21891,-0.36582 0.29024,-0.40054 0.1147,-0.0558 0.24547,-0.18205 0.34623,-0.33421 0.0877,-0.13247 0.10991,-0.15051 0.30684,-0.24962 l 0.21228,-0.10683 0.53054,-0.0111 c 0.59308,-0.0123 0.60806,-0.01 0.86199,0.13521 0.12334,0.0705 0.16329,0.10695 0.19721,0.17976 0.0593,0.12725 0.28819,0.34829 0.42721,0.41249 0.0637,0.0294 0.11583,0.0667 0.11583,0.0829 0,0.0161 0.01,0.0294 0.0214,0.0294 0.0118,0 0.0151,0.0166 0.007,0.0368 -0.0103,0.0269 -0.006,0.0318 0.0155,0.0185 0.0216,-0.0134 0.0258,-0.008 0.0155,0.0185 -0.008,0.021 -0.003,0.0368 0.011,0.0368 0.0138,0 0.0188,0.006 0.0111,0.014 -0.008,0.008 -0.004,0.0332 0.009,0.0567 0.0126,0.0235 0.0271,0.062 0.0324,0.0855 0.005,0.0235 0.0138,0.0624 0.0192,0.0863 0.0107,0.0484 -0.0629,0.28729 -0.15771,0.51172 -0.0505,0.11962 -0.087,0.1672 -0.19879,0.25946 -0.0753,0.0621 -0.16652,0.15532 -0.20269,0.20708 -0.0748,0.10698 -0.62231,0.65059 -0.78368,0.77806 -0.0588,0.0464 -0.14689,0.13524 -0.19586,0.19739 -0.0573,0.0727 -0.11773,0.12289 -0.16939,0.14067 -0.0442,0.0152 -0.10024,0.0371 -0.12455,0.0487 -0.0838,0.0399 -0.3473,0.11148 -0.4056,0.11027 -0.0321,-6.7e-4 -0.14296,-0.0297 -0.24626,-0.0644 z"
       id="path937"
       inkscape:connector-curvature="0"
       transform="scale(0.26458333)" />
    <path
       style="display:inline;opacity:1;fill:#a2e0f6;fill-opacity:1;stroke:#0765d6;stroke-width:2.26771665;stroke-linecap:butt;stroke-linejoin:round;stroke-miterlimit:4;stroke-dasharray:none;stroke-opacity:0.83431373;paint-order:stroke markers fill"
       d="m 485.94245,690.57902 c -0.19632,-0.13668 -0.0942,-0.52841 -0.12475,-0.73197 l 0.0645,-0.76297 c 0.33263,-0.29142 0.71262,-0.11443 1.0038,0.019 0.26603,0.23772 0.52357,0.75646 0.36694,1.06489 -0.0895,0.17622 -0.41712,0.29593 -0.59259,0.3738 -0.29737,0.15172 -0.45694,0.19201 -0.7179,0.0372 z"
       id="path939"
       inkscape:connector-curvature="0"
       transform="scale(0.26458333)"
       sodipodi:nodetypes="ccccsccc" />
    <path
       style="display:inline;fill:#acecfd;fill-opacity:0.99607843;stroke:#0765d6;stroke-width:0.60000002;stroke-linecap:butt;stroke-linejoin:round;stroke-miterlimit:4;stroke-dasharray:none;stroke-opacity:0.83431373;paint-order:stroke markers fill"
       d="m 124.38075,188.49688 c 0.0373,0.009 0.13631,-0.042 0.1153,-0.1724 0.10443,0.038 0.14663,-0.004 0.17441,-0.0827 0.0173,-0.0966 -0.0522,-0.16361 -0.15034,-0.18356 -0.11051,-0.0349 -0.18515,-0.0215 -0.28803,-0.0352 l -0.0226,0.20429 c 0.0164,0.25063 0.11242,0.26916 0.17126,0.2696 z"
       id="path945"
       inkscape:connector-curvature="0"
       sodipodi:nodetypes="cccccccc" />
    <path
       style="display:inline;fill:#60aae7;fill-opacity:1;stroke:#136cd8;stroke-width:0.60000002;stroke-linecap:butt;stroke-linejoin:miter;stroke-miterlimit:4;stroke-dasharray:none;stroke-opacity:0.97254902;paint-order:stroke markers fill"
       d="m 124.36135,183.23254 c 0.14704,-0.16907 0.38845,-0.2177 0.73081,-0.0935 -0.0834,-0.37711 0.17156,-0.49473 0.57296,-0.55542 0.51147,-0.0875 0.52335,0.40546 0.46772,0.66651 0.58799,-0.16345 0.56752,-0.41894 1.3447,-0.28064 0.77584,0.16706 1.29927,0.57528 1.05237,1.6721 0.4258,-0.13678 0.87432,-0.38755 1.181,0.0117 0.81656,0.50286 0.61191,1.03331 0.29233,1.56687 0.0432,0.5149 0.19177,0.93734 -0.0351,1.39147 -0.20488,0.31933 -0.40515,0.35855 -0.67235,0.11697 -0.001,0.35894 -0.24683,0.51245 -0.42095,0.55543 -0.30088,0.0274 -0.54764,-0.25424 -0.68404,-0.7659 -0.80312,0.0318 -1.36787,-0.14489 -1.67211,-0.54957 -0.60288,0.35016 -1.16492,0.93374 -1.97612,0.0935 -0.32128,0.0312 -0.89895,-1.557 -0.0234,-1.8475 -0.004,-0.47789 0.0269,-0.81008 0.0351,-1.13423 -0.23737,-0.0468 -0.43681,-0.57818 -0.19296,-0.84777 z"
       id="path947"
       inkscape:connector-curvature="0"
       sodipodi:nodetypes="cccccccccccccccccc" />
    <path
       style="display:inline;fill:#b4eefe;fill-opacity:1;stroke:none;stroke-width:0.065;stroke-linecap:butt;stroke-linejoin:miter;stroke-miterlimit:4;stroke-dasharray:none;stroke-opacity:1"
       d="m 124.36135,183.23254 c 0.29616,-0.24391 0.53749,-0.1587 0.73081,-0.0935 -0.10143,-0.31594 0.25026,-0.6408 0.57296,-0.55546 0.63418,-0.14298 0.53574,0.58059 0.48793,1.10599 0.49215,1.00139 -0.73021,0.85873 -0.849,0.65081 0.24526,0.59857 -0.49916,0.64154 -0.6665,0.5028 -0.16784,-0.14724 -0.14833,-0.31443 -0.0833,-0.76285 -0.28865,-0.0227 -0.39258,-0.575 -0.19292,-0.84779 z"
       id="path949"
       inkscape:connector-curvature="0"
       sodipodi:nodetypes="cccccccc" />
    <path
       style="display:inline;fill:#b4eefe;fill-opacity:1;stroke:none;stroke-width:0.065;stroke-linecap:butt;stroke-linejoin:miter;stroke-miterlimit:4;stroke-dasharray:none;stroke-opacity:1"
       d="m 128.95544,186.57366 c 0.0568,-0.34136 -0.01,-0.69511 0.5085,-0.65732 0.50312,0.004 0.31787,0.5088 0.28939,0.84335 0.15449,0.0676 0.31852,0.19958 0.32658,0.45476 -0.12766,0.81145 -0.58425,0.83983 -0.78412,0.51415 -0.0733,0.49472 -0.18741,0.68898 -0.70829,0.47804 -0.38806,-0.31829 -0.17217,-0.66617 0.0413,-1.017 -0.28615,0.0662 -0.50112,0.0289 -0.5457,-0.25631 -0.0817,-0.578 0.16361,-0.80871 0.50023,-0.62838 0.21506,0.0753 0.28085,0.15214 0.37211,0.26871 z"
       id="path951"
       inkscape:connector-curvature="0"
       sodipodi:nodetypes="cccccccccc" />
    <path
       style="display:inline;fill:#b5efff;fill-opacity:1;stroke:none;stroke-width:0.26458332px;stroke-linecap:butt;stroke-linejoin:miter;stroke-opacity:1"
       d="m 125.67681,185.53608 c 0.0384,-0.11431 0.12843,-0.1968 0.36833,-0.18709 0.14295,0.0825 0.39315,0.0739 0.24556,0.40341 0.35431,-0.0356 0.30293,0.16271 0.30986,0.30402 -0.008,0.086 -0.12477,0.24023 -0.29232,0.11691 5.2e-4,0.0804 9e-4,0.17309 -0.0499,0.20328 -0.0818,0.0597 -0.21763,0.0405 -0.37692,0.007 -0.0552,-0.0182 -0.18842,-0.10818 -0.0994,-0.24555 -0.1,-0.0171 -0.13571,-0.0771 -0.19294,-0.12272 -0.10636,-0.1671 -0.0846,-0.29681 0.0877,-0.47939 z"
       id="path953"
       inkscape:connector-curvature="0"
       sodipodi:nodetypes="ccccccccccc" />
    <path
       style="display:inline;fill:#b5efff;fill-opacity:1;stroke:none;stroke-width:0.26458332px;stroke-linecap:butt;stroke-linejoin:miter;stroke-opacity:1"
       d="m 125.09698,186.23721 c 0.0505,-0.0162 0.17228,-0.004 0.29335,0.0472 -0.0575,-0.0757 -0.008,-0.0904 0.0409,-0.10524 0.23648,-0.10567 0.20302,0.0635 0.2185,0.11952 0.018,0.0652 0.21263,0.0885 0.12065,0.30143 -0.0506,0.0379 -0.0488,0.0982 -0.19878,0.0935 0.0369,0.0947 0.0417,0.17973 -0.076,0.22802 l -0.14616,-0.0117 c -0.17381,-0.0946 -0.0782,-0.20607 -0.0117,-0.31571 -0.11491,0.0511 -0.33429,0.14201 -0.36833,0.0117 0.003,-0.055 -0.0357,-0.13177 0.16955,-0.14617 -0.078,-0.0261 -0.21435,-0.18099 -0.042,-0.22256 z"
       id="path955"
       inkscape:connector-curvature="0"
       sodipodi:nodetypes="cccscccccccc" />
  </g>
</svg>
